<svg width="80" height="81" viewBox="0 0 80 81" fill="none" xmlns="http://www.w3.org/2000/svg">
<g filter="url(#filter0_d_14_1520)">
<rect x="8" y="6.5" width="64" height="64" rx="24" fill="#F3EFFA"/>
<path fill-rule="evenodd" clip-rule="evenodd" d="M28.7998 29.3998C28.7998 28.9755 28.9684 28.5685 29.2684 28.2684C29.5685 27.9684 29.9755 27.7998 30.3998 27.7998H36.7998C37.2242 27.7998 37.6311 27.9684 37.9312 28.2684C38.2312 28.5685 38.3998 28.9755 38.3998 29.3998C38.3998 29.8242 38.2312 30.2311 37.9312 30.5312C37.6311 30.8312 37.2242 30.9998 36.7998 30.9998H34.2622L37.931 34.6686C38.0838 34.8162 38.2057 34.9928 38.2896 35.188C38.3734 35.3832 38.4176 35.5931 38.4194 35.8056C38.4213 36.018 38.3808 36.2287 38.3003 36.4253C38.2199 36.622 38.1011 36.8006 37.9508 36.9508C37.8006 37.1011 37.622 37.2199 37.4253 37.3003C37.2287 37.3808 37.018 37.4213 36.8056 37.4194C36.5931 37.4176 36.3832 37.3734 36.188 37.2896C35.9928 37.2057 35.8162 37.0838 35.6686 36.931L31.9998 33.2622V35.7998C31.9998 36.2242 31.8312 36.6311 31.5312 36.9312C31.2311 37.2312 30.8242 37.3998 30.3998 37.3998C29.9755 37.3998 29.5685 37.2312 29.2684 36.9312C28.9684 36.6311 28.7998 36.2242 28.7998 35.7998V29.3998ZM43.1998 30.9998C42.7755 30.9998 42.3685 30.8312 42.0684 30.5312C41.7684 30.2311 41.5998 29.8242 41.5998 29.3998C41.5998 28.9755 41.7684 28.5685 42.0684 28.2684C42.3685 27.9684 42.7755 27.7998 43.1998 27.7998H49.5998C50.0242 27.7998 50.4311 27.9684 50.7312 28.2684C51.0312 28.5685 51.1998 28.9755 51.1998 29.3998V35.7998C51.1998 36.2242 51.0312 36.6311 50.7312 36.9312C50.4311 37.2312 50.0242 37.3998 49.5998 37.3998C49.1755 37.3998 48.7685 37.2312 48.4684 36.9312C48.1684 36.6311 47.9998 36.2242 47.9998 35.7998V33.2622L44.331 36.931C44.1834 37.0838 44.0069 37.2057 43.8117 37.2896C43.6164 37.3734 43.4065 37.4176 43.194 37.4194C42.9816 37.4213 42.7709 37.3808 42.5743 37.3003C42.3776 37.2199 42.199 37.1011 42.0488 36.9508C41.8985 36.8006 41.7797 36.622 41.6993 36.4253C41.6188 36.2287 41.5784 36.018 41.5802 35.8056C41.5821 35.5931 41.6262 35.3832 41.71 35.188C41.7939 34.9928 41.9158 34.8162 42.0686 34.6686L45.7374 30.9998H43.1998ZM28.7998 42.1998C28.7998 41.7755 28.9684 41.3685 29.2684 41.0684C29.5685 40.7684 29.9755 40.5998 30.3998 40.5998C30.8242 40.5998 31.2311 40.7684 31.5312 41.0684C31.8312 41.3685 31.9998 41.7755 31.9998 42.1998V44.7374L35.6686 41.0686C35.8162 40.9158 35.9928 40.7939 36.188 40.71C36.3832 40.6262 36.5931 40.5821 36.8056 40.5802C37.018 40.5784 37.2287 40.6188 37.4253 40.6993C37.622 40.7797 37.8006 40.8985 37.9508 41.0488C38.1011 41.199 38.2199 41.3776 38.3003 41.5743C38.3808 41.7709 38.4213 41.9816 38.4194 42.194C38.4176 42.4065 38.3734 42.6164 38.2896 42.8117C38.2057 43.0069 38.0838 43.1834 37.931 43.331L34.2622 46.9998H36.7998C37.2242 46.9998 37.6311 47.1684 37.9312 47.4684C38.2312 47.7685 38.3998 48.1755 38.3998 48.5998C38.3998 49.0242 38.2312 49.4311 37.9312 49.7312C37.6311 50.0312 37.2242 50.1998 36.7998 50.1998H30.3998C29.9755 50.1998 29.5685 50.0312 29.2684 49.7312C28.9684 49.4311 28.7998 49.0242 28.7998 48.5998V42.1998ZM49.5998 40.5998C50.0242 40.5998 50.4311 40.7684 50.7312 41.0684C51.0312 41.3685 51.1998 41.7755 51.1998 42.1998V48.5998C51.1998 49.0242 51.0312 49.4311 50.7312 49.7312C50.4311 50.0312 50.0242 50.1998 49.5998 50.1998H43.1998C42.7755 50.1998 42.3685 50.0312 42.0684 49.7312C41.7684 49.4311 41.5998 49.0242 41.5998 48.5998C41.5998 48.1755 41.7684 47.7685 42.0684 47.4684C42.3685 47.1684 42.7755 46.9998 43.1998 46.9998H45.7374L42.0686 43.331C41.9158 43.1834 41.7939 43.0069 41.71 42.8117C41.6262 42.6164 41.5821 42.4065 41.5802 42.194C41.5784 41.9816 41.6188 41.7709 41.6993 41.5743C41.7797 41.3776 41.8985 41.199 42.0488 41.0488C42.199 40.8985 42.3776 40.7797 42.5743 40.6993C42.7709 40.6188 42.9816 40.5784 43.194 40.5802C43.4065 40.5821 43.6164 40.6262 43.8117 40.71C44.0069 40.7939 44.1834 40.9158 44.331 41.0686L47.9998 44.7374V42.1998C47.9998 41.7755 48.1684 41.3685 48.4684 41.0684C48.7685 40.7684 49.1755 40.5998 49.5998 40.5998Z" fill="url(#paint0_linear_14_1520)"/>
</g>
<defs>
<filter id="filter0_d_14_1520" x="0" y="0.5" width="80" height="80" filterUnits="userSpaceOnUse" color-interpolation-filters="sRGB">
<feFlood flood-opacity="0" result="BackgroundImageFix"/>
<feColorMatrix in="SourceAlpha" type="matrix" values="0 0 0 0 0 0 0 0 0 0 0 0 0 0 0 0 0 0 127 0" result="hardAlpha"/>
<feOffset dy="2"/>
<feGaussianBlur stdDeviation="4"/>
<feComposite in2="hardAlpha" operator="out"/>
<feColorMatrix type="matrix" values="0 0 0 0 0.161662 0 0 0 0 0.036 0 0 0 0 0.364 0 0 0 0.15 0"/>
<feBlend mode="normal" in2="BackgroundImageFix" result="effect1_dropShadow_14_1520"/>
<feBlend mode="normal" in="SourceGraphic" in2="effect1_dropShadow_14_1520" result="shape"/>
</filter>
<linearGradient id="paint0_linear_14_1520" x1="44.1214" y1="47.4222" x2="24.7626" y2="33.6087" gradientUnits="userSpaceOnUse">
<stop offset="0.0625" stop-color="#4C11AB"/>
<stop offset="0.432292" stop-color="#865ACD"/>
<stop offset="1" stop-color="#B898EB"/>
</linearGradient>
</defs>
</svg>
