<svg width="48" height="48" viewBox="0 0 48 48" fill="none" xmlns="http://www.w3.org/2000/svg">
<rect width="48" height="48" rx="16" fill="#F3EFFA"/>
<path d="M14.4004 15.6C14.4004 15.2818 14.5268 14.9765 14.7519 14.7515C14.9769 14.5265 15.2821 14.4 15.6004 14.4H18.184C18.468 14.4002 18.7428 14.501 18.9595 14.6847C19.1761 14.8684 19.3206 15.123 19.3672 15.4032L20.2552 20.7252C20.2976 20.9787 20.2576 21.2391 20.1409 21.4681C20.0243 21.697 19.8372 21.8825 19.6072 21.9972L17.7496 22.9248C18.4157 24.5756 19.4078 26.0752 20.6665 27.3339C21.9253 28.5926 23.4248 29.5847 25.0756 30.2508L26.0044 28.3932C26.119 28.1635 26.3043 27.9765 26.5331 27.8599C26.7618 27.7433 27.0219 27.7031 27.2752 27.7452L32.5972 28.6332C32.8774 28.6798 33.132 28.8243 33.3157 29.0409C33.4994 29.2576 33.6003 29.5324 33.6004 29.8164V32.4C33.6004 32.7183 33.474 33.0235 33.2489 33.2486C33.0239 33.4736 32.7186 33.6 32.4004 33.6H30.0004C21.3844 33.6 14.4004 26.616 14.4004 18V15.6Z" fill="#4C11AB"/>
</svg>
