<svg width="48" height="48" viewBox="0 0 48 48" fill="none" xmlns="http://www.w3.org/2000/svg">
<rect width="48" height="48" rx="16" fill="#F3EFFA"/>
<path d="M14.4004 18C14.4004 17.3635 14.6532 16.753 15.1033 16.3029C15.5534 15.8528 16.1639 15.6 16.8004 15.6H25.2004C25.8369 15.6 26.4474 15.8528 26.8974 16.3029C27.3475 16.753 27.6004 17.3635 27.6004 18V22.8C27.6004 23.4365 27.3475 24.0469 26.8974 24.497C26.4474 24.9471 25.8369 25.2 25.2004 25.2H22.8004L19.2004 28.8V25.2H16.8004C16.1639 25.2 15.5534 24.9471 15.1033 24.497C14.6532 24.0469 14.4004 23.4365 14.4004 22.8V18Z" fill="#4C11AB"/>
<path d="M30.0004 20.4V22.8C30.0004 24.0731 29.4947 25.294 28.5945 26.1941C27.6943 27.0943 26.4734 27.6 25.2004 27.6H23.794L21.6748 29.7204C22.0108 29.8992 22.3936 30 22.8004 30H25.2004L28.8004 33.6V30H31.2004C31.8369 30 32.4474 29.7472 32.8975 29.2971C33.3475 28.847 33.6004 28.2365 33.6004 27.6V22.8C33.6004 22.1635 33.3475 21.5531 32.8975 21.103C32.4474 20.6529 31.8369 20.4 31.2004 20.4H30.0004Z" fill="#4C11AB"/>
</svg>
