<svg width="80" height="81" viewBox="0 0 80 81" fill="none" xmlns="http://www.w3.org/2000/svg">
<g filter="url(#filter0_d_14_1532)">
<rect x="8" y="6.5" width="64" height="64" rx="24" fill="#F3EFFA"/>
<path d="M47.4911 30.9575L49.4284 29.0202L51.3137 30.9055L49.3764 32.8428C51.2908 35.2391 52.215 38.2773 51.9592 41.3337C51.7034 44.39 50.2871 47.2324 48.0011 49.2771C45.715 51.3218 42.7329 52.4136 39.6671 52.3283C36.6012 52.2429 33.6844 50.9869 31.5157 48.8182C29.347 46.6495 28.091 43.7327 28.0056 40.6668C27.9203 37.601 29.0121 34.6189 31.0568 32.3328C33.1015 30.0468 35.9439 28.6305 39.0002 28.3747C42.0566 28.1189 45.0948 29.0431 47.4911 30.9575ZM38.6671 33.6668V41.6668H41.3337V33.6668H38.6671ZM34.6671 24.3335H45.3337V27.0002H34.6671V24.3335Z" fill="url(#paint0_linear_14_1532)"/>
</g>
<defs>
<filter id="filter0_d_14_1532" x="0" y="0.5" width="80" height="80" filterUnits="userSpaceOnUse" color-interpolation-filters="sRGB">
<feFlood flood-opacity="0" result="BackgroundImageFix"/>
<feColorMatrix in="SourceAlpha" type="matrix" values="0 0 0 0 0 0 0 0 0 0 0 0 0 0 0 0 0 0 127 0" result="hardAlpha"/>
<feOffset dy="2"/>
<feGaussianBlur stdDeviation="4"/>
<feComposite in2="hardAlpha" operator="out"/>
<feColorMatrix type="matrix" values="0 0 0 0 0.161662 0 0 0 0 0.036 0 0 0 0 0.364 0 0 0 0.15 0"/>
<feBlend mode="normal" in2="BackgroundImageFix" result="effect1_dropShadow_14_1532"/>
<feBlend mode="normal" in="SourceGraphic" in2="effect1_dropShadow_14_1532" result="shape"/>
</filter>
<linearGradient id="paint0_linear_14_1532" x1="44.417" y1="48.861" x2="21.6366" y2="34.9279" gradientUnits="userSpaceOnUse">
<stop offset="0.0625" stop-color="#4C11AB"/>
<stop offset="0.432292" stop-color="#865ACD"/>
<stop offset="1" stop-color="#B898EB"/>
</linearGradient>
</defs>
</svg>
