<svg width="48" height="48" viewBox="0 0 48 48" fill="none" xmlns="http://www.w3.org/2000/svg">
<rect width="48" height="48" rx="16" fill="#F3EFFA"/>
<path d="M14.4033 19.0608L23.9997 23.8584L33.5961 19.0608C33.5606 18.4493 33.2926 17.8746 32.8471 17.4543C32.4016 17.0339 31.8122 16.7999 31.1997 16.8H16.7997C16.1872 16.7999 15.5979 17.0339 15.1523 17.4543C14.7068 17.8746 14.4388 18.4493 14.4033 19.0608Z" fill="#4C11AB"/>
<path d="M33.6004 21.7416L24.0004 26.5416L14.4004 21.7416V28.8C14.4004 29.4365 14.6532 30.0469 15.1033 30.497C15.5534 30.9471 16.1639 31.2 16.8004 31.2H31.2004C31.8369 31.2 32.4474 30.9471 32.8974 30.497C33.3475 30.0469 33.6004 29.4365 33.6004 28.8V21.7416Z" fill="#4C11AB"/>
</svg>
