<svg width="80" height="80" viewBox="0 0 80 80" fill="none" xmlns="http://www.w3.org/2000/svg">
<g filter="url(#filter0_d_14_1447)">
<rect x="8" y="6" width="64" height="64" rx="24" fill="#F3EFFA"/>
<path d="M40.0003 51.8332C32.6363 51.8332 26.667 45.8638 26.667 38.4998C26.667 31.1358 32.6363 25.1665 40.0003 25.1665C47.3643 25.1665 53.3337 31.1358 53.3337 38.4998C53.3337 45.8638 47.3643 51.8332 40.0003 51.8332ZM33.3337 38.4998C33.3337 40.2679 34.036 41.9636 35.2863 43.2139C36.5365 44.4641 38.2322 45.1665 40.0003 45.1665C41.7684 45.1665 43.4641 44.4641 44.7144 43.2139C45.9646 41.9636 46.667 40.2679 46.667 38.4998H44.0003C44.0003 39.5607 43.5789 40.5781 42.8288 41.3283C42.0786 42.0784 41.0612 42.4998 40.0003 42.4998C38.9395 42.4998 37.922 42.0784 37.1719 41.3283C36.4218 40.5781 36.0003 39.5607 36.0003 38.4998H33.3337Z" fill="url(#paint0_linear_14_1447)"/>
</g>
<defs>
<filter id="filter0_d_14_1447" x="0" y="0" width="80" height="80" filterUnits="userSpaceOnUse" color-interpolation-filters="sRGB">
<feFlood flood-opacity="0" result="BackgroundImageFix"/>
<feColorMatrix in="SourceAlpha" type="matrix" values="0 0 0 0 0 0 0 0 0 0 0 0 0 0 0 0 0 0 127 0" result="hardAlpha"/>
<feOffset dy="2"/>
<feGaussianBlur stdDeviation="4"/>
<feComposite in2="hardAlpha" operator="out"/>
<feColorMatrix type="matrix" values="0 0 0 0 0.161662 0 0 0 0 0.036 0 0 0 0 0.364 0 0 0 0.15 0"/>
<feBlend mode="normal" in2="BackgroundImageFix" result="effect1_dropShadow_14_1447"/>
<feBlend mode="normal" in="SourceGraphic" in2="effect1_dropShadow_14_1447" result="shape"/>
</filter>
<linearGradient id="paint0_linear_14_1447" x1="44.907" y1="48.5265" x2="21.8608" y2="32.0819" gradientUnits="userSpaceOnUse">
<stop offset="0.0625" stop-color="#4C11AB"/>
<stop offset="0.432292" stop-color="#865ACD"/>
<stop offset="1" stop-color="#B898EB"/>
</linearGradient>
</defs>
</svg>
