<svg width="32" height="32" viewBox="0 0 32 32" fill="none" xmlns="http://www.w3.org/2000/svg">
<rect width="32" height="32" rx="12" fill="#4C11AB"/>
<path d="M9.60254 12.7074L16.0001 15.9058L22.3977 12.7074C22.3741 12.2998 22.1954 11.9166 21.8984 11.6364C21.6014 11.3562 21.2085 11.2001 20.8001 11.2002H11.2001C10.7918 11.2001 10.3989 11.3562 10.1019 11.6364C9.80487 11.9166 9.62622 12.2998 9.60254 12.7074Z" fill="white"/>
<path d="M22.3996 14.4941L15.9996 17.6941L9.59961 14.4941V19.1997C9.59961 19.6241 9.76818 20.0311 10.0682 20.3311C10.3683 20.6312 10.7753 20.7997 11.1996 20.7997H20.7996C21.224 20.7997 21.6309 20.6312 21.931 20.3311C22.231 20.0311 22.3996 19.6241 22.3996 19.1997V14.4941Z" fill="white"/>
</svg>
