<svg width="80" height="80" viewBox="0 0 80 80" fill="none" xmlns="http://www.w3.org/2000/svg">
<g filter="url(#filter0_d_14_1435)">
<rect x="8" y="6" width="64" height="64" rx="24" fill="#F3EFFA"/>
<path fill-rule="evenodd" clip-rule="evenodd" d="M27.4658 30.4984C32.098 30.4408 36.5519 28.7039 40.0002 25.6104C43.4483 28.7045 47.9022 30.4419 52.5346 30.5C52.7106 31.54 52.8002 32.612 52.8002 33.7016C52.8002 42.0616 47.4562 49.1736 40.0002 51.8088C32.5442 49.172 27.2002 42.06 27.2002 33.7C27.2002 32.6088 27.2914 31.54 27.4658 30.4984ZM45.9314 36.4312C46.2228 36.1294 46.3841 35.7252 46.3805 35.3057C46.3768 34.8862 46.2086 34.4849 45.9119 34.1882C45.6153 33.8916 45.214 33.7233 44.7944 33.7197C44.3749 33.716 43.9708 33.8773 43.669 34.1688L38.4002 39.4376L36.3314 37.3688C36.0296 37.0773 35.6255 36.916 35.206 36.9197C34.7864 36.9233 34.3851 37.0916 34.0885 37.3882C33.7918 37.6849 33.6236 38.0862 33.6199 38.5057C33.6163 38.9252 33.7775 39.3294 34.069 39.6312L37.269 42.8312C37.569 43.1311 37.9759 43.2996 38.4002 43.2996C38.8245 43.2996 39.2313 43.1311 39.5314 42.8312L45.9314 36.4312Z" fill="url(#paint0_linear_14_1435)"/>
</g>
<defs>
<filter id="filter0_d_14_1435" x="0" y="0" width="80" height="80" filterUnits="userSpaceOnUse" color-interpolation-filters="sRGB">
<feFlood flood-opacity="0" result="BackgroundImageFix"/>
<feColorMatrix in="SourceAlpha" type="matrix" values="0 0 0 0 0 0 0 0 0 0 0 0 0 0 0 0 0 0 127 0" result="hardAlpha"/>
<feOffset dy="2"/>
<feGaussianBlur stdDeviation="4"/>
<feComposite in2="hardAlpha" operator="out"/>
<feColorMatrix type="matrix" values="0 0 0 0 0.161662 0 0 0 0 0.036 0 0 0 0 0.364 0 0 0 0.15 0"/>
<feBlend mode="normal" in2="BackgroundImageFix" result="effect1_dropShadow_14_1435"/>
<feBlend mode="normal" in="SourceGraphic" in2="effect1_dropShadow_14_1435" result="shape"/>
</filter>
<linearGradient id="paint0_linear_14_1435" x1="44.7106" y1="48.5602" x2="22.2439" y2="32.8953" gradientUnits="userSpaceOnUse">
<stop offset="0.0625" stop-color="#4C11AB"/>
<stop offset="0.432292" stop-color="#865ACD"/>
<stop offset="1" stop-color="#B898EB"/>
</linearGradient>
</defs>
</svg>
