<svg width="32" height="32" viewBox="0 0 32 32" fill="none" xmlns="http://www.w3.org/2000/svg">
<rect width="32" height="32" rx="12" fill="#4C11AB"/>
<path d="M9.59961 12.0004C9.59961 11.576 9.76818 11.1691 10.0682 10.869C10.3683 10.569 10.7753 10.4004 11.1996 10.4004H16.7996C17.224 10.4004 17.6309 10.569 17.931 10.869C18.231 11.1691 18.3996 11.576 18.3996 12.0004V15.2004C18.3996 15.6247 18.231 16.0317 17.931 16.3318C17.6309 16.6318 17.224 16.8004 16.7996 16.8004H15.1996L12.7996 19.2004V16.8004H11.1996C10.7753 16.8004 10.3683 16.6318 10.0682 16.3318C9.76818 16.0317 9.59961 15.6247 9.59961 15.2004V12.0004Z" fill="white"/>
<path d="M19.9996 13.5996V15.1996C19.9996 16.0483 19.6625 16.8622 19.0624 17.4624C18.4622 18.0625 17.6483 18.3996 16.7996 18.3996H15.862L14.4492 19.8132C14.6732 19.9324 14.9284 19.9996 15.1996 19.9996H16.7996L19.1996 22.3996V19.9996H20.7996C21.224 19.9996 21.6309 19.831 21.931 19.531C22.231 19.2309 22.3996 18.824 22.3996 18.3996V15.1996C22.3996 14.7753 22.231 14.3683 21.931 14.0682C21.6309 13.7682 21.224 13.5996 20.7996 13.5996H19.9996Z" fill="white"/>
</svg>
