<svg width="24" height="24" viewBox="0 0 24 24" fill="none" xmlns="http://www.w3.org/2000/svg">
<rect width="24" height="24" rx="9" fill="#FAEFEF"/>
<path fill-rule="evenodd" clip-rule="evenodd" d="M7.43442 7.43439C7.58445 7.28441 7.78789 7.20016 8.00002 7.20016C8.21216 7.20016 8.4156 7.28441 8.56562 7.43439L12 10.8688L15.4344 7.43439C15.5082 7.35798 15.5965 7.29703 15.6941 7.2551C15.7917 7.21318 15.8967 7.19111 16.0029 7.19019C16.1091 7.18926 16.2145 7.2095 16.3128 7.24973C16.4111 7.28995 16.5004 7.34936 16.5755 7.42447C16.6507 7.49958 16.7101 7.58891 16.7503 7.68722C16.7905 7.78554 16.8107 7.89088 16.8098 7.99711C16.8089 8.10333 16.7868 8.20831 16.7449 8.30591C16.703 8.40351 16.642 8.49179 16.5656 8.56559L13.1312 12L16.5656 15.4344C16.7114 15.5853 16.792 15.7873 16.7902 15.9971C16.7883 16.2069 16.7042 16.4075 16.5559 16.5558C16.4076 16.7042 16.2069 16.7883 15.9971 16.7901C15.7874 16.7919 15.5853 16.7113 15.4344 16.5656L12 13.1312L8.56562 16.5656C8.41474 16.7113 8.21266 16.7919 8.0029 16.7901C7.79315 16.7883 7.5925 16.7042 7.44417 16.5558C7.29584 16.4075 7.21171 16.2069 7.20989 15.9971C7.20806 15.7873 7.2887 15.5853 7.43442 15.4344L10.8688 12L7.43442 8.56559C7.28445 8.41556 7.2002 8.21212 7.2002 7.99999C7.2002 7.78785 7.28445 7.58441 7.43442 7.43439Z" fill="#FF0000"/>
</svg>
