<svg width="80" height="80" viewBox="0 0 80 80" fill="none" xmlns="http://www.w3.org/2000/svg">
<g filter="url(#filter0_d_14_1438)">
<rect x="8" y="6" width="64" height="64" rx="24" fill="#F3EFFA"/>
<path d="M51.9997 32.6669C52.7069 32.6669 53.3852 32.9478 53.8853 33.4479C54.3854 33.948 54.6663 34.6263 54.6663 35.3335V40.6669C54.6663 41.3741 54.3854 42.0524 53.8853 42.5525C53.3852 43.0526 52.7069 43.3335 51.9997 43.3335H50.5837C50.2586 45.9113 49.004 48.2818 47.0553 50.0002C45.1066 51.7186 42.5978 52.6668 39.9997 52.6669V50.0002C42.1214 50.0002 44.1562 49.1573 45.6565 47.657C47.1568 46.1568 47.9997 44.1219 47.9997 42.0002V34.0002C47.9997 31.8785 47.1568 29.8436 45.6565 28.3433C44.1562 26.843 42.1214 26.0002 39.9997 26.0002C37.8779 26.0002 35.8431 26.843 34.3428 28.3433C32.8425 29.8436 31.9997 31.8785 31.9997 34.0002V43.3335H27.9997C27.2924 43.3335 26.6142 43.0526 26.1141 42.5525C25.614 42.0524 25.333 41.3741 25.333 40.6669V35.3335C25.333 34.6263 25.614 33.948 26.1141 33.4479C26.6142 32.9478 27.2924 32.6669 27.9997 32.6669H29.4157C29.741 30.0894 30.9958 27.7192 32.9444 26.0011C34.8931 24.283 37.4017 23.335 39.9997 23.335C42.5976 23.335 45.1062 24.283 47.0549 26.0011C49.0036 27.7192 50.2583 30.0894 50.5837 32.6669H51.9997ZM34.3463 43.0469L35.7597 40.7855C37.0304 41.5816 38.5002 42.0026 39.9997 42.0002C41.4992 42.0026 42.9689 41.5816 44.2397 40.7855L45.653 43.0469C43.9587 44.1084 41.9991 44.6699 39.9997 44.6669C38.0003 44.6699 36.0407 44.1084 34.3463 43.0469Z" fill="url(#paint0_linear_14_1438)"/>
</g>
<defs>
<filter id="filter0_d_14_1438" x="0" y="0" width="80" height="80" filterUnits="userSpaceOnUse" color-interpolation-filters="sRGB">
<feFlood flood-opacity="0" result="BackgroundImageFix"/>
<feColorMatrix in="SourceAlpha" type="matrix" values="0 0 0 0 0 0 0 0 0 0 0 0 0 0 0 0 0 0 127 0" result="hardAlpha"/>
<feOffset dy="2"/>
<feGaussianBlur stdDeviation="4"/>
<feComposite in2="hardAlpha" operator="out"/>
<feColorMatrix type="matrix" values="0 0 0 0 0.161662 0 0 0 0 0.036 0 0 0 0 0.364 0 0 0 0.15 0"/>
<feBlend mode="normal" in2="BackgroundImageFix" result="effect1_dropShadow_14_1438"/>
<feBlend mode="normal" in="SourceGraphic" in2="effect1_dropShadow_14_1438" result="shape"/>
</filter>
<linearGradient id="paint0_linear_14_1438" x1="45.397" y1="49.0297" x2="20.047" y2="30.9404" gradientUnits="userSpaceOnUse">
<stop offset="0.0625" stop-color="#4C11AB"/>
<stop offset="0.432292" stop-color="#865ACD"/>
<stop offset="1" stop-color="#B898EB"/>
</linearGradient>
</defs>
</svg>
