<svg width="80" height="81" viewBox="0 0 80 81" fill="none" xmlns="http://www.w3.org/2000/svg">
<g filter="url(#filter0_d_14_1528)">
<rect x="8" y="6.5" width="64" height="64" rx="24" fill="#F3EFFA"/>
<path d="M38.3998 26.2002C37.9755 26.2002 37.5685 26.3688 37.2684 26.6688C36.9684 26.9689 36.7998 27.3758 36.7998 27.8002C36.7998 28.2245 36.9684 28.6315 37.2684 28.9316C37.5685 29.2316 37.9755 29.4002 38.3998 29.4002H41.5998C42.0242 29.4002 42.4311 29.2316 42.7312 28.9316C43.0312 28.6315 43.1998 28.2245 43.1998 27.8002C43.1998 27.3758 43.0312 26.9689 42.7312 26.6688C42.4311 26.3688 42.0242 26.2002 41.5998 26.2002H38.3998Z" fill="url(#paint0_linear_14_1528)"/>
<path fill-rule="evenodd" clip-rule="evenodd" d="M30.4004 30.9998C30.4004 30.1511 30.7375 29.3372 31.3376 28.7371C31.9378 28.1369 32.7517 27.7998 33.6004 27.7998C33.6004 29.0728 34.1061 30.2937 35.0063 31.1939C35.9065 32.0941 37.1274 32.5998 38.4004 32.5998H41.6004C42.8734 32.5998 44.0943 32.0941 44.9945 31.1939C45.8947 30.2937 46.4004 29.0728 46.4004 27.7998C47.2491 27.7998 48.063 28.1369 48.6631 28.7371C49.2632 29.3372 49.6004 30.1511 49.6004 30.9998V48.5998C49.6004 49.4485 49.2632 50.2624 48.6631 50.8625C48.063 51.4627 47.2491 51.7998 46.4004 51.7998H33.6004C32.7517 51.7998 31.9378 51.4627 31.3376 50.8625C30.7375 50.2624 30.4004 49.4485 30.4004 48.5998V30.9998ZM35.2004 37.3998C34.776 37.3998 34.3691 37.5684 34.069 37.8684C33.769 38.1685 33.6004 38.5755 33.6004 38.9998C33.6004 39.4242 33.769 39.8311 34.069 40.1312C34.3691 40.4312 34.776 40.5998 35.2004 40.5998H35.2164C35.6407 40.5998 36.0477 40.4312 36.3478 40.1312C36.6478 39.8311 36.8164 39.4242 36.8164 38.9998C36.8164 38.5755 36.6478 38.1685 36.3478 37.8684C36.0477 37.5684 35.6407 37.3998 35.2164 37.3998H35.2004ZM40.0004 37.3998C39.576 37.3998 39.1691 37.5684 38.869 37.8684C38.569 38.1685 38.4004 38.5755 38.4004 38.9998C38.4004 39.4242 38.569 39.8311 38.869 40.1312C39.1691 40.4312 39.576 40.5998 40.0004 40.5998H44.8004C45.2247 40.5998 45.6317 40.4312 45.9318 40.1312C46.2318 39.8311 46.4004 39.4242 46.4004 38.9998C46.4004 38.5755 46.2318 38.1685 45.9318 37.8684C45.6317 37.5684 45.2247 37.3998 44.8004 37.3998H40.0004ZM35.2004 43.7998C34.776 43.7998 34.3691 43.9684 34.069 44.2684C33.769 44.5685 33.6004 44.9755 33.6004 45.3998C33.6004 45.8242 33.769 46.2311 34.069 46.5312C34.3691 46.8312 34.776 46.9998 35.2004 46.9998H35.2164C35.6407 46.9998 36.0477 46.8312 36.3478 46.5312C36.6478 46.2311 36.8164 45.8242 36.8164 45.3998C36.8164 44.9755 36.6478 44.5685 36.3478 44.2684C36.0477 43.9684 35.6407 43.7998 35.2164 43.7998H35.2004ZM40.0004 43.7998C39.576 43.7998 39.1691 43.9684 38.869 44.2684C38.569 44.5685 38.4004 44.9755 38.4004 45.3998C38.4004 45.8242 38.569 46.2311 38.869 46.5312C39.1691 46.8312 39.576 46.9998 40.0004 46.9998H44.8004C45.2247 46.9998 45.6317 46.8312 45.9318 46.5312C46.2318 46.2311 46.4004 45.8242 46.4004 45.3998C46.4004 44.9755 46.2318 44.5685 45.9318 44.2684C45.6317 43.9684 45.2247 43.7998 44.8004 43.7998H40.0004Z" fill="url(#paint1_linear_14_1528)"/>
</g>
<defs>
<filter id="filter0_d_14_1528" x="0" y="0.5" width="80" height="80" filterUnits="userSpaceOnUse" color-interpolation-filters="sRGB">
<feFlood flood-opacity="0" result="BackgroundImageFix"/>
<feColorMatrix in="SourceAlpha" type="matrix" values="0 0 0 0 0 0 0 0 0 0 0 0 0 0 0 0 0 0 127 0" result="hardAlpha"/>
<feOffset dy="2"/>
<feGaussianBlur stdDeviation="4"/>
<feComposite in2="hardAlpha" operator="out"/>
<feColorMatrix type="matrix" values="0 0 0 0 0.161662 0 0 0 0 0.036 0 0 0 0 0.364 0 0 0 0.15 0"/>
<feBlend mode="normal" in2="BackgroundImageFix" result="effect1_dropShadow_14_1528"/>
<feBlend mode="normal" in="SourceGraphic" in2="effect1_dropShadow_14_1528" result="shape"/>
</filter>
<linearGradient id="paint0_linear_14_1528" x1="41.1774" y1="29.0034" x2="38.4285" y2="25.0805" gradientUnits="userSpaceOnUse">
<stop offset="0.0625" stop-color="#4C11AB"/>
<stop offset="0.432292" stop-color="#865ACD"/>
<stop offset="1" stop-color="#B898EB"/>
</linearGradient>
<linearGradient id="paint1_linear_14_1528" x1="43.5332" y1="48.8238" x2="24.646" y2="38.0422" gradientUnits="userSpaceOnUse">
<stop offset="0.0625" stop-color="#4C11AB"/>
<stop offset="0.432292" stop-color="#865ACD"/>
<stop offset="1" stop-color="#B898EB"/>
</linearGradient>
</defs>
</svg>
