<svg width="80" height="80" viewBox="0 0 80 80" fill="none" xmlns="http://www.w3.org/2000/svg">
<g filter="url(#filter0_d_14_1451)">
<rect x="8" y="6" width="64" height="64" rx="24" fill="#F3EFFA"/>
<path d="M41.3337 46.5V49.1667H46.667V51.8333H33.3337V49.1667H38.667V46.5H27.9897C27.8146 46.499 27.6415 46.4634 27.4802 46.3953C27.3189 46.3272 27.1726 46.2279 27.0497 46.1032C26.9268 45.9785 26.8298 45.8307 26.7641 45.6684C26.6985 45.5061 26.6655 45.3324 26.667 45.1573V27.8427C26.667 27.1013 27.2737 26.5 27.9897 26.5H52.011C52.7417 26.5 53.3337 27.0987 53.3337 27.8427V45.1573C53.3337 45.8987 52.727 46.5 52.011 46.5H41.3337Z" fill="url(#paint0_linear_14_1451)"/>
</g>
<defs>
<filter id="filter0_d_14_1451" x="0" y="0" width="80" height="80" filterUnits="userSpaceOnUse" color-interpolation-filters="sRGB">
<feFlood flood-opacity="0" result="BackgroundImageFix"/>
<feColorMatrix in="SourceAlpha" type="matrix" values="0 0 0 0 0 0 0 0 0 0 0 0 0 0 0 0 0 0 127 0" result="hardAlpha"/>
<feOffset dy="2"/>
<feGaussianBlur stdDeviation="4"/>
<feComposite in2="hardAlpha" operator="out"/>
<feColorMatrix type="matrix" values="0 0 0 0 0.161662 0 0 0 0 0.036 0 0 0 0 0.364 0 0 0 0.15 0"/>
<feBlend mode="normal" in2="BackgroundImageFix" result="effect1_dropShadow_14_1451"/>
<feBlend mode="normal" in="SourceGraphic" in2="effect1_dropShadow_14_1451" result="shape"/>
</filter>
<linearGradient id="paint0_linear_14_1451" x1="44.907" y1="48.692" x2="22.6713" y2="31.9906" gradientUnits="userSpaceOnUse">
<stop offset="0.0625" stop-color="#4C11AB"/>
<stop offset="0.432292" stop-color="#865ACD"/>
<stop offset="1" stop-color="#B898EB"/>
</linearGradient>
</defs>
</svg>
