<svg width="32" height="32" viewBox="0 0 32 32" fill="none" xmlns="http://www.w3.org/2000/svg">
<rect width="32" height="32" rx="12" fill="#4C11AB"/>
<path d="M9.59961 10.3996C9.59961 10.1874 9.68389 9.98395 9.83392 9.83392C9.98395 9.68389 10.1874 9.59961 10.3996 9.59961H12.122C12.3114 9.5997 12.4946 9.66695 12.639 9.78942C12.7834 9.91188 12.8798 10.0816 12.9108 10.2684L13.5028 13.8164C13.5311 13.9854 13.5044 14.159 13.4266 14.3116C13.3489 14.4643 13.2241 14.588 13.0708 14.6644L11.8324 15.2828C12.2765 16.3833 12.9379 17.383 13.777 18.2222C14.6162 19.0613 15.6159 19.7227 16.7164 20.1668L17.3356 18.9284C17.412 18.7752 17.5356 18.6506 17.6881 18.5729C17.8405 18.4951 18.014 18.4683 18.1828 18.4964L21.7308 19.0884C21.9176 19.1195 22.0873 19.2158 22.2098 19.3602C22.3323 19.5046 22.3995 19.6878 22.3996 19.8772V21.5996C22.3996 21.8118 22.3153 22.0153 22.1653 22.1653C22.0153 22.3153 21.8118 22.3996 21.5996 22.3996H19.9996C14.2556 22.3996 9.59961 17.7436 9.59961 11.9996V10.3996Z" fill="white"/>
</svg>
